# xmcd
#
# Track frame offsets: 
#        150
#        22475
#        47205
#        61162
#        84392
#        99585
#        124497
#        149207
#        169222
#        186672
#        215412
#        236060
#        253947
#
# Disc length: 3631 seconds
#
# Revision: 5
# Processed by: cddbd v1.5.2PL0 Copyright (c) Steve Scherf et al.
# Submitted via: ExactAudioCopyFreeDBPlugin 1.0
#
DISCID=d50e2d0d
DTITLE=Mark Knopfler - Sailing to Philadelphia
DYEAR=2000
DGENRE=Rock
TTITLE0=What it is
TTITLE1=Sailing to Philadelphia
TTITLE2=Who's you baby now
TTITLE3=Baloney again
TTITLE4=the last laugh
TTITLE5=Silvertown blues
TTITLE6=El Macho
TTITLE7=Prairie wedding
TTITLE8=Wanderlust
TTITLE9=Speedway at Nazareth
TTITLE10=Junkie doll
TTITLE11=Sands of Nevada
TTITLE12=One more matinee
EXTD=
EXTT0=
EXTT1=
EXTT2=
EXTT3=
EXTT4=
EXTT5=
EXTT6=
EXTT7=
EXTT8=
EXTT9=
EXTT10=
EXTT11=
EXTT12=
PLAYORDER=
